# xmcd CD database file
#
# Track frame offsets:
#	150
#	18075
#	36347
#	54272
#	83657
#
# Disc length: 4440 seconds
#
# Revision: 0
# Processed by: cddbd v1.5.1PL2 Copyright (c) Steve Scherf et al.
# Submitted via: CDex 1.51
#
DISCID=2d115605
DTITLE=move - 雷鳴 〜OUT OF KONTROL〜
DYEAR=2005
DGENRE=JPop
TTITLE0=雷鳴 〜OUT OF KONTROL〜
TTITLE1=GIRL (YOU WANNA MOVE)
TTITLE2=雷鳴 〜OUT OF KONTROL〜 -INSTRUMENTAL-
TTITLE3=GIRL (YOU WANNA MOVE) -INSTRUMENTAL-
TTITLE4=CCCD
EXTD=YEAR: 2005
EXTT0=
EXTT1=
EXTT2=
EXTT3=
EXTT4=
PLAYORDER=
